<svg width="24" height="24" viewBox="0 0 24 24" fill="none" xmlns="http://www.w3.org/2000/svg">
<path d="M9.1248 21.0999L0.699805 12.6999C0.599805 12.5999 0.529138 12.4916 0.487805 12.3749C0.445805 12.2582 0.424805 12.1332 0.424805 11.9999C0.424805 11.8666 0.445805 11.7416 0.487805 11.6249C0.529138 11.5082 0.599805 11.3999 0.699805 11.2999L9.1248 2.8749C9.35814 2.64157 9.6498 2.5249 9.9998 2.5249C10.3498 2.5249 10.6498 2.6499 10.8998 2.8999C11.1498 3.1499 11.2748 3.44157 11.2748 3.7749C11.2748 4.10824 11.1498 4.3999 10.8998 4.6499L3.5498 11.9999L10.8998 19.3499C11.1331 19.5832 11.2498 19.8706 11.2498 20.2119C11.2498 20.5539 11.1248 20.8499 10.8748 21.0999C10.6248 21.3499 10.3331 21.4749 9.9998 21.4749C9.66647 21.4749 9.3748 21.3499 9.1248 21.0999Z" fill="#48484A"/>
</svg>
