<svg width="101" height="35" viewBox="0 0 101 35" fill="none" xmlns="http://www.w3.org/2000/svg">
<rect width="101" height="35" rx="17.5" fill="#48484A"/>
<path d="M14.255 13.706L15.685 19.063L17.445 13.706H19.161L20.921 19.063L22.351 13.706H24.606L22.131 22H19.931L18.303 17.193L16.675 22H14.475L12 13.706H14.255ZM27.6363 13.706V22H25.4803V13.706H27.6363ZM28.995 22L30.403 13.706H32.537L34.198 18.128L35.848 13.706H37.982L39.39 22H37.245L36.53 17.226L34.572 22H33.714L31.855 17.226L31.14 22H28.995ZM42.6367 17.853C42.6367 18.183 42.6991 18.4873 42.8237 18.766C42.9484 19.0447 43.1171 19.2867 43.3297 19.492C43.5424 19.6973 43.7881 19.8587 44.0667 19.976C44.3527 20.086 44.6534 20.141 44.9687 20.141C45.2841 20.141 45.5811 20.086 45.8597 19.976C46.1457 19.8587 46.3951 19.6973 46.6077 19.492C46.8277 19.2867 47.0001 19.0447 47.1247 18.766C47.2494 18.4873 47.3117 18.183 47.3117 17.853C47.3117 17.523 47.2494 17.2187 47.1247 16.94C47.0001 16.6613 46.8277 16.4193 46.6077 16.214C46.3951 16.0087 46.1457 15.851 45.8597 15.741C45.5811 15.6237 45.2841 15.565 44.9687 15.565C44.6534 15.565 44.3527 15.6237 44.0667 15.741C43.7881 15.851 43.5424 16.0087 43.3297 16.214C43.1171 16.4193 42.9484 16.6613 42.8237 16.94C42.6991 17.2187 42.6367 17.523 42.6367 17.853ZM40.3817 17.853C40.3817 17.237 40.4954 16.665 40.7227 16.137C40.9501 15.6017 41.2654 15.136 41.6687 14.74C42.0721 14.344 42.5524 14.036 43.1097 13.816C43.6744 13.5887 44.2941 13.475 44.9687 13.475C45.6361 13.475 46.2521 13.5887 46.8167 13.816C47.3814 14.036 47.8654 14.344 48.2687 14.74C48.6794 15.136 48.9984 15.6017 49.2257 16.137C49.4531 16.665 49.5667 17.237 49.5667 17.853C49.5667 18.469 49.4531 19.0447 49.2257 19.58C48.9984 20.108 48.6794 20.57 48.2687 20.966C47.8654 21.362 47.3814 21.6737 46.8167 21.901C46.2521 22.121 45.6361 22.231 44.9687 22.231C44.2941 22.231 43.6744 22.121 43.1097 21.901C42.5524 21.6737 42.0721 21.362 41.6687 20.966C41.2654 20.57 40.9501 20.108 40.7227 19.58C40.4954 19.0447 40.3817 18.469 40.3817 17.853ZM59.2209 15.829C58.9862 15.6383 58.7515 15.499 58.5169 15.411C58.2822 15.3157 58.0549 15.268 57.8349 15.268C57.5562 15.268 57.3289 15.334 57.1529 15.466C56.9769 15.598 56.8889 15.7703 56.8889 15.983C56.8889 16.1297 56.9329 16.2507 57.0209 16.346C57.1089 16.4413 57.2225 16.5257 57.3619 16.599C57.5085 16.665 57.6699 16.7237 57.8459 16.775C58.0292 16.8263 58.2089 16.8813 58.3849 16.94C59.0889 17.1747 59.6022 17.49 59.9249 17.886C60.2549 18.2747 60.4199 18.7843 60.4199 19.415C60.4199 19.8403 60.3465 20.2253 60.1999 20.57C60.0605 20.9147 59.8515 21.2117 59.5729 21.461C59.3015 21.703 58.9642 21.89 58.5609 22.022C58.1649 22.1613 57.7139 22.231 57.2079 22.231C56.1592 22.231 55.1875 21.9193 54.2929 21.296L55.2169 19.558C55.5395 19.844 55.8585 20.0567 56.1739 20.196C56.4892 20.3353 56.8009 20.405 57.1089 20.405C57.4609 20.405 57.7212 20.3243 57.8899 20.163C58.0659 20.0017 58.1539 19.8183 58.1539 19.613C58.1539 19.4883 58.1319 19.382 58.0879 19.294C58.0439 19.1987 57.9705 19.1143 57.8679 19.041C57.7652 18.9603 57.6295 18.887 57.4609 18.821C57.2995 18.755 57.1015 18.6817 56.8669 18.601C56.5882 18.513 56.3132 18.4177 56.0419 18.315C55.7779 18.205 55.5395 18.062 55.3269 17.886C55.1215 17.71 54.9529 17.49 54.8209 17.226C54.6962 16.9547 54.6339 16.6137 54.6339 16.203C54.6339 15.7923 54.6999 15.422 54.8319 15.092C54.9712 14.7547 55.1619 14.4687 55.4039 14.234C55.6532 13.992 55.9539 13.805 56.3059 13.673C56.6652 13.541 57.0649 13.475 57.5049 13.475C57.9155 13.475 58.3445 13.5337 58.7919 13.651C59.2392 13.761 59.6682 13.926 60.0789 14.146L59.2209 15.829ZM61.5912 12.87H63.5822V17.072C63.8535 16.742 64.1285 16.522 64.4072 16.412C64.6858 16.2947 65.0122 16.236 65.3862 16.236C66.0975 16.236 66.6328 16.434 66.9922 16.83C67.3588 17.2187 67.5422 17.7467 67.5422 18.414V22H65.5512V19.151C65.5512 18.865 65.5292 18.634 65.4852 18.458C65.4412 18.282 65.3678 18.1463 65.2652 18.051C65.0892 17.897 64.8765 17.82 64.6272 17.82C64.2898 17.82 64.0295 17.9227 63.8462 18.128C63.6702 18.326 63.5822 18.612 63.5822 18.986V22H61.5912V12.87ZM70.7439 19.162C70.7439 19.3453 70.7769 19.5177 70.8429 19.679C70.9089 19.833 70.9969 19.9687 71.1069 20.086C71.2242 20.2033 71.3599 20.295 71.5139 20.361C71.6752 20.427 71.8475 20.46 72.0309 20.46C72.2069 20.46 72.3719 20.427 72.5259 20.361C72.6872 20.295 72.8229 20.2033 72.9329 20.086C73.0502 19.9687 73.1419 19.833 73.2079 19.679C73.2812 19.525 73.3179 19.36 73.3179 19.184C73.3179 19.008 73.2812 18.843 73.2079 18.689C73.1419 18.5277 73.0502 18.3883 72.9329 18.271C72.8229 18.1537 72.6872 18.062 72.5259 17.996C72.3719 17.93 72.2069 17.897 72.0309 17.897C71.8475 17.897 71.6752 17.93 71.5139 17.996C71.3599 18.062 71.2242 18.1537 71.1069 18.271C70.9969 18.3883 70.9089 18.524 70.8429 18.678C70.7769 18.8247 70.7439 18.986 70.7439 19.162ZM73.2519 16.357H75.2539V22H73.2519V21.373C72.8265 21.9083 72.2509 22.176 71.5249 22.176C71.1142 22.176 70.7365 22.1027 70.3919 21.956C70.0472 21.802 69.7465 21.5893 69.4899 21.318C69.2332 21.0467 69.0315 20.7277 68.8849 20.361C68.7455 19.9943 68.6759 19.5947 68.6759 19.162C68.6759 18.7587 68.7455 18.3773 68.8849 18.018C69.0242 17.6513 69.2185 17.3323 69.4679 17.061C69.7172 16.7897 70.0142 16.577 70.3589 16.423C70.7035 16.2617 71.0849 16.181 71.5029 16.181C72.2069 16.181 72.7899 16.4267 73.2519 16.918V16.357ZM76.6088 16.357H78.5998V17.281C78.8124 16.9437 79.0728 16.687 79.3808 16.511C79.6888 16.3277 80.0481 16.236 80.4588 16.236C80.5101 16.236 80.5651 16.236 80.6238 16.236C80.6898 16.236 80.7631 16.2433 80.8438 16.258V18.161C80.5798 18.029 80.2938 17.963 79.9858 17.963C79.5238 17.963 79.1754 18.1023 78.9408 18.381C78.7134 18.6523 78.5998 19.052 78.5998 19.58V22H76.6088V16.357ZM85.9222 18.359C85.8562 18.0803 85.7206 17.8567 85.5152 17.688C85.3099 17.5193 85.0606 17.435 84.7672 17.435C84.4592 17.435 84.2062 17.5157 84.0082 17.677C83.8176 17.8383 83.6966 18.0657 83.6452 18.359H85.9222ZM83.5902 19.514C83.5902 20.372 83.9936 20.801 84.8002 20.801C85.2329 20.801 85.5592 20.625 85.7792 20.273H87.7042C87.3156 21.5637 86.3439 22.209 84.7892 22.209C84.3126 22.209 83.8762 22.1393 83.4802 22C83.0842 21.8533 82.7432 21.648 82.4572 21.384C82.1786 21.12 81.9622 20.8047 81.8082 20.438C81.6542 20.0713 81.5772 19.6607 81.5772 19.206C81.5772 18.7367 81.6506 18.315 81.7972 17.941C81.9439 17.5597 82.1529 17.237 82.4242 16.973C82.6956 16.709 83.0219 16.5073 83.4032 16.368C83.7919 16.2213 84.2282 16.148 84.7122 16.148C85.1889 16.148 85.6179 16.2213 85.9992 16.368C86.3806 16.5073 86.7032 16.7127 86.9672 16.984C87.2312 17.2553 87.4329 17.589 87.5722 17.985C87.7116 18.3737 87.7812 18.8137 87.7812 19.305V19.514H83.5902Z" fill="white"/>
</svg>
