<svg width="24" height="24" viewBox="0 0 24 24" fill="none" xmlns="http://www.w3.org/2000/svg">
<rect width="24" height="24" fill="white"/>
<g clip-path="url(#clip0_674_1734)">
<path d="M4.59 7.43L3.69 8.31C3.51 8.49 3.28 8.59 3 8.59C2.72 8.59 2.49 8.49 2.29 8.29C2.1 8.09 2.01 7.86 2.01 7.58C2.01 7.3 2.1 7.06 2.29 6.88L4.89 4.27C4.99 4.17 5.1 4.1 5.21 4.06C5.33 4.02 5.45 4 5.59 4C5.73 4 5.85 4.02 5.97 4.06C6.09 4.1 6.19 4.17 6.29 4.27L8.89 6.87C9.07 7.05 9.17 7.28 9.18 7.56C9.18 7.83 9.09 8.07 8.89 8.27C8.71 8.45 8.48 8.55 8.2 8.56C7.92 8.56 7.69 8.48 7.49 8.3L6.59 7.42V15.72L7.49 14.84C7.67 14.66 7.9 14.57 8.18 14.57C8.46 14.57 8.69 14.67 8.89 14.87C9.07 15.05 9.17 15.29 9.17 15.57C9.17 15.85 9.08 16.09 8.89 16.27L6.29 18.87C6.19 18.97 6.08 19.04 5.97 19.08C5.85 19.12 5.73 19.14 5.59 19.14C5.45 19.14 5.33 19.12 5.21 19.08C5.09 19.04 4.99 18.97 4.89 18.87L2.29 16.27C2.11 16.09 2.01 15.86 2 15.58C2 15.31 2.09 15.07 2.29 14.87C2.47 14.69 2.7 14.59 2.98 14.58C3.26 14.58 3.49 14.66 3.69 14.84L4.59 15.72V7.43Z" fill="#48484A"/>
<path d="M12.5898 16.5701C12.3098 16.5701 12.0698 16.4701 11.8798 16.2801C11.6898 16.0901 11.5898 15.8501 11.5898 15.5701C11.5898 15.2901 11.6898 15.0501 11.8798 14.8601C12.0698 14.6701 12.3098 14.5701 12.5898 14.5701H20.5898C20.8698 14.5701 21.1098 14.6701 21.2998 14.8601C21.4898 15.0501 21.5898 15.2901 21.5898 15.5701C21.5898 15.8501 21.4898 16.0901 21.2998 16.2801C21.1098 16.4701 20.8698 16.5701 20.5898 16.5701H12.5898Z" fill="#48484A"/>
<path d="M12.5898 12.5701C12.3098 12.5701 12.0698 12.4701 11.8798 12.2801C11.6898 12.0901 11.5898 11.8501 11.5898 11.5701C11.5898 11.2901 11.6898 11.0501 11.8798 10.8601C12.0698 10.6701 12.3098 10.5701 12.5898 10.5701H20.5898C20.8698 10.5701 21.1098 10.6701 21.2998 10.8601C21.4898 11.0501 21.5898 11.2901 21.5898 11.5701C21.5898 11.8501 21.4898 12.0901 21.2998 12.2801C21.1098 12.4701 20.8698 12.5701 20.5898 12.5701H12.5898Z" fill="#48484A"/>
<path d="M12.5898 8.58008C12.3098 8.58008 12.0698 8.48008 11.8798 8.29008C11.6898 8.10008 11.5898 7.86008 11.5898 7.58008C11.5898 7.30008 11.6898 7.06008 11.8798 6.87008C12.0698 6.68008 12.3098 6.58008 12.5898 6.58008H20.5898C20.8698 6.58008 21.1098 6.68008 21.2998 6.87008C21.4898 7.06008 21.5898 7.30008 21.5898 7.58008C21.5898 7.86008 21.4898 8.10008 21.2998 8.29008C21.1098 8.48008 20.8698 8.58008 20.5898 8.58008H12.5898Z" fill="#48484A"/>
</g>
<defs>
<clipPath id="clip0_674_1734">
<rect width="19.59" height="15.15" fill="white" transform="translate(2 4)"/>
</clipPath>
</defs>
</svg>
