<svg width="24" height="24" viewBox="0 0 24 24" fill="none" xmlns="http://www.w3.org/2000/svg">
<mask id="mask0_683_3247" style="mask-type:alpha" maskUnits="userSpaceOnUse" x="0" y="0" width="24" height="24">
<rect width="24" height="24" fill="#D9D9D9"/>
</mask>
<g mask="url(#mask0_683_3247)">
<path d="M3 20C2.71667 20 2.47917 19.9042 2.2875 19.7125C2.09583 19.5208 2 19.2833 2 19V5C2 4.71667 2.09583 4.47917 2.2875 4.2875C2.47917 4.09583 2.71667 4 3 4C3.28333 4 3.52083 4.09583 3.7125 4.2875C3.90417 4.47917 4 4.71667 4 5V19C4 19.2833 3.90417 19.5208 3.7125 19.7125C3.52083 19.9042 3.28333 20 3 20ZM21 20C20.7167 20 20.4792 19.9042 20.2875 19.7125C20.0958 19.5208 20 19.2833 20 19V5C20 4.71667 20.0958 4.47917 20.2875 4.2875C20.4792 4.09583 20.7167 4 21 4C21.2833 4 21.5208 4.09583 21.7125 4.2875C21.9042 4.47917 22 4.71667 22 5V19C22 19.2833 21.9042 19.5208 21.7125 19.7125C21.5208 19.9042 21.2833 20 21 20ZM8.525 17C8.24167 17 8.01667 16.8833 7.85 16.65C7.68333 16.4167 7.65 16.1667 7.75 15.9L10.9 7.55C10.9667 7.38333 11.0667 7.25 11.2 7.15C11.3333 7.05 11.4917 7 11.675 7H12.325C12.5083 7 12.6667 7.05 12.8 7.15C12.9333 7.25 13.0333 7.38333 13.1 7.55L16.25 15.925C16.35 16.1917 16.3208 16.4375 16.1625 16.6625C16.0042 16.8875 15.7833 17 15.5 17C15.3167 17 15.1583 16.95 15.025 16.85C14.8917 16.75 14.7917 16.6167 14.725 16.45L14.025 14.45H9.975L9.25 16.475C9.2 16.6417 9.10833 16.7708 8.975 16.8625C8.84167 16.9542 8.69167 17 8.525 17ZM10.5 13H13.5L12.05 8.85H11.95L10.5 13Z" fill="#48484A"/>
</g>
</svg>
