<svg width="44" height="44" viewBox="0 0 44 44" fill="none" xmlns="http://www.w3.org/2000/svg">
<rect width="44" height="44" rx="6" fill="#F2F2F7"/>
<mask id="mask0_669_1613" style="mask-type:alpha" maskUnits="userSpaceOnUse" x="10" y="10" width="24" height="24">
<rect x="10" y="10" width="24" height="24" fill="#D9D9D9"/>
</mask>
<g mask="url(#mask0_669_1613)">
<path d="M28 19C27.7167 19 27.4792 18.9042 27.2875 18.7125C27.0958 18.5208 27 18.2833 27 18V17H26C25.7167 17 25.4792 16.9042 25.2875 16.7125C25.0958 16.5208 25 16.2833 25 16C25 15.7167 25.0958 15.4792 25.2875 15.2875C25.4792 15.0958 25.7167 15 26 15H27V14C27 13.7167 27.0958 13.4792 27.2875 13.2875C27.4792 13.0958 27.7167 13 28 13C28.2833 13 28.5208 13.0958 28.7125 13.2875C28.9042 13.4792 29 13.7167 29 14V15H30C30.2833 15 30.5208 15.0958 30.7125 15.2875C30.9042 15.4792 31 15.7167 31 16C31 16.2833 30.9042 16.5208 30.7125 16.7125C30.5208 16.9042 30.2833 17 30 17H29V18C29 18.2833 28.9042 18.5208 28.7125 18.7125C28.5208 18.9042 28.2833 19 28 19ZM17 27H27C27.2 27 27.35 26.9083 27.45 26.725C27.55 26.5417 27.5333 26.3667 27.4 26.2L24.65 22.525C24.55 22.3917 24.4167 22.325 24.25 22.325C24.0833 22.325 23.95 22.3917 23.85 22.525L21.25 26L19.4 23.525C19.3 23.3917 19.1667 23.325 19 23.325C18.8333 23.325 18.7 23.3917 18.6 23.525L16.6 26.2C16.4667 26.3667 16.45 26.5417 16.55 26.725C16.65 26.9083 16.8 27 17 27ZM15 31C14.45 31 13.9792 30.8042 13.5875 30.4125C13.1958 30.0208 13 29.55 13 29V15C13 14.45 13.1958 13.9792 13.5875 13.5875C13.9792 13.1958 14.45 13 15 13H23C23.2833 13 23.5208 13.0958 23.7125 13.2875C23.9042 13.4792 24 13.7167 24 14V17C24 17.2833 24.0958 17.5208 24.2875 17.7125C24.4792 17.9042 24.7167 18 25 18H26V19C26 19.2833 26.0958 19.5208 26.2875 19.7125C26.4792 19.9042 26.7167 20 27 20H30C30.2833 20 30.5208 20.0958 30.7125 20.2875C30.9042 20.4792 31 20.7167 31 21V29C31 29.55 30.8042 30.0208 30.4125 30.4125C30.0208 30.8042 29.55 31 29 31H15Z" fill="#48484A"/>
</g>
</svg>
