<svg width="15" height="15" viewBox="0 0 15 15" fill="none" xmlns="http://www.w3.org/2000/svg">
<mask id="mask0_654_1568" style="mask-type:alpha" maskUnits="userSpaceOnUse" x="0" y="0" width="15" height="15">
<rect width="15" height="15" fill="#D9D9D9"/>
</mask>
<g mask="url(#mask0_654_1568)">
<path d="M9.04688 7.5L4.45313 2.90625C4.29688 2.75 4.22136 2.5651 4.22657 2.35156C4.23178 2.13802 4.31251 1.95312 4.46876 1.79688C4.62501 1.64062 4.8099 1.5625 5.02345 1.5625C5.23699 1.5625 5.42188 1.64062 5.57813 1.79688L10.375 6.60938C10.5 6.73438 10.5938 6.875 10.6563 7.03125C10.7188 7.1875 10.75 7.34375 10.75 7.5C10.75 7.65625 10.7188 7.8125 10.6563 7.96875C10.5938 8.125 10.5 8.26562 10.375 8.39062L5.56251 13.2031C5.40626 13.3594 5.22397 13.4349 5.01563 13.4297C4.8073 13.4245 4.62501 13.3438 4.46876 13.1875C4.31251 13.0312 4.23438 12.8464 4.23438 12.6328C4.23438 12.4193 4.31251 12.2344 4.46876 12.0781L9.04688 7.5Z" fill="#AEAEB2"/>
</g>
</svg>
