<svg width="24" height="24" viewBox="0 0 24 24" fill="none" xmlns="http://www.w3.org/2000/svg">
<mask id="mask0_683_3244" style="mask-type:alpha" maskUnits="userSpaceOnUse" x="0" y="0" width="24" height="24">
<rect width="24" height="24" fill="#D9D9D9"/>
</mask>
<g mask="url(#mask0_683_3244)">
<path d="M5 20C4.71667 20 4.47917 19.9042 4.2875 19.7125C4.09583 19.5208 4 19.2833 4 19V5C4 4.71667 4.09583 4.47917 4.2875 4.2875C4.47917 4.09583 4.71667 4 5 4C5.28333 4 5.52083 4.09583 5.7125 4.2875C5.90417 4.47917 6 4.71667 6 5V19C6 19.2833 5.90417 19.5208 5.7125 19.7125C5.52083 19.9042 5.28333 20 5 20ZM19 20C18.7167 20 18.4792 19.9042 18.2875 19.7125C18.0958 19.5208 18 19.2833 18 19V5C18 4.71667 18.0958 4.47917 18.2875 4.2875C18.4792 4.09583 18.7167 4 19 4C19.2833 4 19.5208 4.09583 19.7125 4.2875C19.9042 4.47917 20 4.71667 20 5V19C20 19.2833 19.9042 19.5208 19.7125 19.7125C19.5208 19.9042 19.2833 20 19 20ZM8.525 17C8.24167 17 8.01667 16.8833 7.85 16.65C7.68333 16.4167 7.65 16.1667 7.75 15.9L10.9 7.55C10.9667 7.38333 11.0667 7.25 11.2 7.15C11.3333 7.05 11.4917 7 11.675 7H12.325C12.5083 7 12.6667 7.05 12.8 7.15C12.9333 7.25 13.0333 7.38333 13.1 7.55L16.25 15.925C16.35 16.1917 16.3208 16.4375 16.1625 16.6625C16.0042 16.8875 15.7833 17 15.5 17C15.3167 17 15.1583 16.95 15.025 16.85C14.8917 16.75 14.7917 16.6167 14.725 16.45L14.025 14.45H9.975L9.25 16.475C9.2 16.6417 9.10833 16.7708 8.975 16.8625C8.84167 16.9542 8.69167 17 8.525 17ZM10.5 13H13.5L12.05 8.85H11.95L10.5 13Z" fill="#48484A"/>
</g>
</svg>
