<svg width="76" height="11" viewBox="0 0 76 11" fill="none" xmlns="http://www.w3.org/2000/svg">
<path d="M2.255 1.706L3.685 7.063L5.445 1.706H7.161L8.921 7.063L10.351 1.706H12.606L10.131 10H7.931L6.303 5.193L4.675 10H2.475L0 1.706H2.255ZM15.6363 1.706V10H13.4803V1.706H15.6363ZM16.995 10L18.403 1.706H20.537L22.198 6.128L23.848 1.706H25.982L27.39 10H25.245L24.53 5.226L22.572 10H21.714L19.855 5.226L19.14 10H16.995ZM30.6367 5.853C30.6367 6.183 30.6991 6.48733 30.8237 6.766C30.9484 7.04467 31.1171 7.28667 31.3297 7.492C31.5424 7.69733 31.7881 7.85867 32.0667 7.976C32.3527 8.086 32.6534 8.141 32.9687 8.141C33.2841 8.141 33.5811 8.086 33.8597 7.976C34.1457 7.85867 34.3951 7.69733 34.6077 7.492C34.8277 7.28667 35.0001 7.04467 35.1247 6.766C35.2494 6.48733 35.3117 6.183 35.3117 5.853C35.3117 5.523 35.2494 5.21867 35.1247 4.94C35.0001 4.66133 34.8277 4.41933 34.6077 4.214C34.3951 4.00867 34.1457 3.851 33.8597 3.741C33.5811 3.62367 33.2841 3.565 32.9687 3.565C32.6534 3.565 32.3527 3.62367 32.0667 3.741C31.7881 3.851 31.5424 4.00867 31.3297 4.214C31.1171 4.41933 30.9484 4.66133 30.8237 4.94C30.6991 5.21867 30.6367 5.523 30.6367 5.853ZM28.3817 5.853C28.3817 5.237 28.4954 4.665 28.7227 4.137C28.9501 3.60167 29.2654 3.136 29.6687 2.74C30.0721 2.344 30.5524 2.036 31.1097 1.816C31.6744 1.58867 32.2941 1.475 32.9687 1.475C33.6361 1.475 34.2521 1.58867 34.8167 1.816C35.3814 2.036 35.8654 2.344 36.2687 2.74C36.6794 3.136 36.9984 3.60167 37.2257 4.137C37.4531 4.665 37.5667 5.237 37.5667 5.853C37.5667 6.469 37.4531 7.04467 37.2257 7.58C36.9984 8.108 36.6794 8.57 36.2687 8.966C35.8654 9.362 35.3814 9.67367 34.8167 9.901C34.2521 10.121 33.6361 10.231 32.9687 10.231C32.2941 10.231 31.6744 10.121 31.1097 9.901C30.5524 9.67367 30.0721 9.362 29.6687 8.966C29.2654 8.57 28.9501 8.108 28.7227 7.58C28.4954 7.04467 28.3817 6.469 28.3817 5.853ZM47.2209 3.829C46.9862 3.63833 46.7515 3.499 46.5169 3.411C46.2822 3.31567 46.0549 3.268 45.8349 3.268C45.5562 3.268 45.3289 3.334 45.1529 3.466C44.9769 3.598 44.8889 3.77033 44.8889 3.983C44.8889 4.12967 44.9329 4.25067 45.0209 4.346C45.1089 4.44133 45.2225 4.52567 45.3619 4.599C45.5085 4.665 45.6699 4.72367 45.8459 4.775C46.0292 4.82633 46.2089 4.88133 46.3849 4.94C47.0889 5.17467 47.6022 5.49 47.9249 5.886C48.2549 6.27467 48.4199 6.78433 48.4199 7.415C48.4199 7.84033 48.3465 8.22533 48.1999 8.57C48.0605 8.91467 47.8515 9.21167 47.5729 9.461C47.3015 9.703 46.9642 9.89 46.5609 10.022C46.1649 10.1613 45.7139 10.231 45.2079 10.231C44.1592 10.231 43.1875 9.91933 42.2929 9.296L43.2169 7.558C43.5395 7.844 43.8585 8.05667 44.1739 8.196C44.4892 8.33533 44.8009 8.405 45.1089 8.405C45.4609 8.405 45.7212 8.32433 45.8899 8.163C46.0659 8.00167 46.1539 7.81833 46.1539 7.613C46.1539 7.48833 46.1319 7.382 46.0879 7.294C46.0439 7.19867 45.9705 7.11433 45.8679 7.041C45.7652 6.96033 45.6295 6.887 45.4609 6.821C45.2995 6.755 45.1015 6.68167 44.8669 6.601C44.5882 6.513 44.3132 6.41767 44.0419 6.315C43.7779 6.205 43.5395 6.062 43.3269 5.886C43.1215 5.71 42.9529 5.49 42.8209 5.226C42.6962 4.95467 42.6339 4.61367 42.6339 4.203C42.6339 3.79233 42.6999 3.422 42.8319 3.092C42.9712 2.75467 43.1619 2.46867 43.4039 2.234C43.6532 1.992 43.9539 1.805 44.3059 1.673C44.6652 1.541 45.0649 1.475 45.5049 1.475C45.9155 1.475 46.3445 1.53367 46.7919 1.651C47.2392 1.761 47.6682 1.926 48.0789 2.146L47.2209 3.829ZM49.5912 0.87H51.5822V5.072C51.8535 4.742 52.1285 4.522 52.4072 4.412C52.6858 4.29467 53.0122 4.236 53.3862 4.236C54.0975 4.236 54.6328 4.434 54.9922 4.83C55.3588 5.21867 55.5422 5.74667 55.5422 6.414V10H53.5512V7.151C53.5512 6.865 53.5292 6.634 53.4852 6.458C53.4412 6.282 53.3678 6.14633 53.2652 6.051C53.0892 5.897 52.8765 5.82 52.6272 5.82C52.2898 5.82 52.0295 5.92267 51.8462 6.128C51.6702 6.326 51.5822 6.612 51.5822 6.986V10H49.5912V0.87ZM58.7439 7.162C58.7439 7.34533 58.7769 7.51767 58.8429 7.679C58.9089 7.833 58.9969 7.96867 59.1069 8.086C59.2242 8.20333 59.3599 8.295 59.5139 8.361C59.6752 8.427 59.8475 8.46 60.0309 8.46C60.2069 8.46 60.3719 8.427 60.5259 8.361C60.6872 8.295 60.8229 8.20333 60.9329 8.086C61.0502 7.96867 61.1419 7.833 61.2079 7.679C61.2812 7.525 61.3179 7.36 61.3179 7.184C61.3179 7.008 61.2812 6.843 61.2079 6.689C61.1419 6.52767 61.0502 6.38833 60.9329 6.271C60.8229 6.15367 60.6872 6.062 60.5259 5.996C60.3719 5.93 60.2069 5.897 60.0309 5.897C59.8475 5.897 59.6752 5.93 59.5139 5.996C59.3599 6.062 59.2242 6.15367 59.1069 6.271C58.9969 6.38833 58.9089 6.524 58.8429 6.678C58.7769 6.82467 58.7439 6.986 58.7439 7.162ZM61.2519 4.357H63.2539V10H61.2519V9.373C60.8265 9.90833 60.2509 10.176 59.5249 10.176C59.1142 10.176 58.7365 10.1027 58.3919 9.956C58.0472 9.802 57.7465 9.58933 57.4899 9.318C57.2332 9.04667 57.0315 8.72767 56.8849 8.361C56.7455 7.99433 56.6759 7.59467 56.6759 7.162C56.6759 6.75867 56.7455 6.37733 56.8849 6.018C57.0242 5.65133 57.2185 5.33233 57.4679 5.061C57.7172 4.78967 58.0142 4.577 58.3589 4.423C58.7035 4.26167 59.0849 4.181 59.5029 4.181C60.2069 4.181 60.7899 4.42667 61.2519 4.918V4.357ZM64.6088 4.357H66.5998V5.281C66.8124 4.94367 67.0728 4.687 67.3808 4.511C67.6888 4.32767 68.0481 4.236 68.4588 4.236C68.5101 4.236 68.5651 4.236 68.6238 4.236C68.6898 4.236 68.7631 4.24333 68.8438 4.258V6.161C68.5798 6.029 68.2938 5.963 67.9858 5.963C67.5238 5.963 67.1754 6.10233 66.9408 6.381C66.7134 6.65233 66.5998 7.052 66.5998 7.58V10H64.6088V4.357ZM73.9222 6.359C73.8562 6.08033 73.7206 5.85667 73.5152 5.688C73.3099 5.51933 73.0606 5.435 72.7672 5.435C72.4592 5.435 72.2062 5.51567 72.0082 5.677C71.8176 5.83833 71.6966 6.06567 71.6452 6.359H73.9222ZM71.5902 7.514C71.5902 8.372 71.9936 8.801 72.8002 8.801C73.2329 8.801 73.5592 8.625 73.7792 8.273H75.7042C75.3156 9.56367 74.3439 10.209 72.7892 10.209C72.3126 10.209 71.8762 10.1393 71.4802 10C71.0842 9.85333 70.7432 9.648 70.4572 9.384C70.1786 9.12 69.9622 8.80467 69.8082 8.438C69.6542 8.07133 69.5772 7.66067 69.5772 7.206C69.5772 6.73667 69.6506 6.315 69.7972 5.941C69.9439 5.55967 70.1529 5.237 70.4242 4.973C70.6956 4.709 71.0219 4.50733 71.4032 4.368C71.7919 4.22133 72.2282 4.148 72.7122 4.148C73.1889 4.148 73.6179 4.22133 73.9992 4.368C74.3806 4.50733 74.7032 4.71267 74.9672 4.984C75.2312 5.25533 75.4329 5.589 75.5722 5.985C75.7116 6.37367 75.7812 6.81367 75.7812 7.305V7.514H71.5902Z" fill="#1C1C1E"/>
</svg>
