<svg width="67" height="15" viewBox="0 0 67 15" fill="none" xmlns="http://www.w3.org/2000/svg">
<path opacity="0.5" d="M2.255 3.706L3.685 9.063L5.445 3.706H7.161L8.921 9.063L10.351 3.706H12.606L10.131 12H7.931L6.303 7.193L4.675 12H2.475L0 3.706H2.255ZM15.6363 3.706V12H13.4803V3.706H15.6363ZM19.525 10.174H20.02C20.394 10.174 20.7277 10.1153 21.021 9.998C21.3143 9.88067 21.56 9.71933 21.758 9.514C21.9633 9.30867 22.1173 9.06667 22.22 8.788C22.33 8.502 22.385 8.19033 22.385 7.853C22.385 7.523 22.33 7.215 22.22 6.929C22.11 6.643 21.9523 6.39733 21.747 6.192C21.549 5.98667 21.3033 5.82533 21.01 5.708C20.7167 5.59067 20.3867 5.532 20.02 5.532H19.525V10.174ZM17.369 3.706H20.559C21.1237 3.706 21.6517 3.81967 22.143 4.047C22.6417 4.27433 23.0743 4.57867 23.441 4.96C23.815 5.334 24.1083 5.774 24.321 6.28C24.5337 6.77867 24.64 7.303 24.64 7.853C24.64 8.39567 24.5337 8.92 24.321 9.426C24.1157 9.92467 23.826 10.3647 23.452 10.746C23.0853 11.1273 22.6527 11.4317 22.154 11.659C21.6627 11.8863 21.131 12 20.559 12H17.369V3.706ZM28.1725 3.706V12H26.0165V3.706H28.1725ZM38.1974 5.829C37.9627 5.63833 37.7281 5.499 37.4934 5.411C37.2587 5.31567 37.0314 5.268 36.8114 5.268C36.5327 5.268 36.3054 5.334 36.1294 5.466C35.9534 5.598 35.8654 5.77033 35.8654 5.983C35.8654 6.12967 35.9094 6.25067 35.9974 6.346C36.0854 6.44133 36.1991 6.52567 36.3384 6.599C36.4851 6.665 36.6464 6.72367 36.8224 6.775C37.0057 6.82633 37.1854 6.88133 37.3614 6.94C38.0654 7.17467 38.5787 7.49 38.9014 7.886C39.2314 8.27467 39.3964 8.78433 39.3964 9.415C39.3964 9.84033 39.3231 10.2253 39.1764 10.57C39.0371 10.9147 38.8281 11.2117 38.5494 11.461C38.2781 11.703 37.9407 11.89 37.5374 12.022C37.1414 12.1613 36.6904 12.231 36.1844 12.231C35.1357 12.231 34.1641 11.9193 33.2694 11.296L34.1934 9.558C34.5161 9.844 34.8351 10.0567 35.1504 10.196C35.4657 10.3353 35.7774 10.405 36.0854 10.405C36.4374 10.405 36.6977 10.3243 36.8664 10.163C37.0424 10.0017 37.1304 9.81833 37.1304 9.613C37.1304 9.48833 37.1084 9.382 37.0644 9.294C37.0204 9.19867 36.9471 9.11433 36.8444 9.041C36.7417 8.96033 36.6061 8.887 36.4374 8.821C36.2761 8.755 36.0781 8.68167 35.8434 8.601C35.5647 8.513 35.2897 8.41767 35.0184 8.315C34.7544 8.205 34.5161 8.062 34.3034 7.886C34.0981 7.71 33.9294 7.49 33.7974 7.226C33.6727 6.95467 33.6104 6.61367 33.6104 6.203C33.6104 5.79233 33.6764 5.422 33.8084 5.092C33.9477 4.75467 34.1384 4.46867 34.3804 4.234C34.6297 3.992 34.9304 3.805 35.2824 3.673C35.6417 3.541 36.0414 3.475 36.4814 3.475C36.8921 3.475 37.3211 3.53367 37.7684 3.651C38.2157 3.761 38.6447 3.926 39.0554 4.146L38.1974 5.829ZM40.5677 2.87H42.5587V7.072C42.8301 6.742 43.1051 6.522 43.3837 6.412C43.6624 6.29467 43.9887 6.236 44.3627 6.236C45.0741 6.236 45.6094 6.434 45.9687 6.83C46.3354 7.21867 46.5187 7.74667 46.5187 8.414V12H44.5277V9.151C44.5277 8.865 44.5057 8.634 44.4617 8.458C44.4177 8.282 44.3444 8.14633 44.2417 8.051C44.0657 7.897 43.8531 7.82 43.6037 7.82C43.2664 7.82 43.0061 7.92267 42.8227 8.128C42.6467 8.326 42.5587 8.612 42.5587 8.986V12H40.5677V2.87ZM49.7204 9.162C49.7204 9.34533 49.7534 9.51767 49.8194 9.679C49.8854 9.833 49.9734 9.96867 50.0834 10.086C50.2008 10.2033 50.3364 10.295 50.4904 10.361C50.6518 10.427 50.8241 10.46 51.0074 10.46C51.1834 10.46 51.3484 10.427 51.5024 10.361C51.6638 10.295 51.7994 10.2033 51.9094 10.086C52.0268 9.96867 52.1184 9.833 52.1844 9.679C52.2578 9.525 52.2944 9.36 52.2944 9.184C52.2944 9.008 52.2578 8.843 52.1844 8.689C52.1184 8.52767 52.0268 8.38833 51.9094 8.271C51.7994 8.15367 51.6638 8.062 51.5024 7.996C51.3484 7.93 51.1834 7.897 51.0074 7.897C50.8241 7.897 50.6518 7.93 50.4904 7.996C50.3364 8.062 50.2008 8.15367 50.0834 8.271C49.9734 8.38833 49.8854 8.524 49.8194 8.678C49.7534 8.82467 49.7204 8.986 49.7204 9.162ZM52.2284 6.357H54.2304V12H52.2284V11.373C51.8031 11.9083 51.2274 12.176 50.5014 12.176C50.0908 12.176 49.7131 12.1027 49.3684 11.956C49.0238 11.802 48.7231 11.5893 48.4664 11.318C48.2098 11.0467 48.0081 10.7277 47.8614 10.361C47.7221 9.99433 47.6524 9.59467 47.6524 9.162C47.6524 8.75867 47.7221 8.37733 47.8614 8.018C48.0008 7.65133 48.1951 7.33233 48.4444 7.061C48.6938 6.78967 48.9908 6.577 49.3354 6.423C49.6801 6.26167 50.0614 6.181 50.4794 6.181C51.1834 6.181 51.7664 6.42667 52.2284 6.918V6.357ZM55.5853 6.357H57.5763V7.281C57.789 6.94367 58.0493 6.687 58.3573 6.511C58.6653 6.32767 59.0247 6.236 59.4353 6.236C59.4867 6.236 59.5417 6.236 59.6003 6.236C59.6663 6.236 59.7397 6.24333 59.8203 6.258V8.161C59.5563 8.029 59.2703 7.963 58.9623 7.963C58.5003 7.963 58.152 8.10233 57.9173 8.381C57.69 8.65233 57.5763 9.052 57.5763 9.58V12H55.5853V6.357ZM64.8988 8.359C64.8328 8.08033 64.6971 7.85667 64.4918 7.688C64.2865 7.51933 64.0371 7.435 63.7438 7.435C63.4358 7.435 63.1828 7.51567 62.9848 7.677C62.7941 7.83833 62.6731 8.06567 62.6218 8.359H64.8988ZM62.5668 9.514C62.5668 10.372 62.9701 10.801 63.7768 10.801C64.2095 10.801 64.5358 10.625 64.7558 10.273H66.6808C66.2921 11.5637 65.3205 12.209 63.7658 12.209C63.2891 12.209 62.8528 12.1393 62.4568 12C62.0608 11.8533 61.7198 11.648 61.4338 11.384C61.1551 11.12 60.9388 10.8047 60.7848 10.438C60.6308 10.0713 60.5538 9.66067 60.5538 9.206C60.5538 8.73667 60.6271 8.315 60.7738 7.941C60.9205 7.55967 61.1295 7.237 61.4008 6.973C61.6721 6.709 61.9985 6.50733 62.3798 6.368C62.7685 6.22133 63.2048 6.148 63.6888 6.148C64.1655 6.148 64.5945 6.22133 64.9758 6.368C65.3571 6.50733 65.6798 6.71267 65.9438 6.984C66.2078 7.25533 66.4095 7.589 66.5488 7.985C66.6881 8.37367 66.7578 8.81367 66.7578 9.305V9.514H62.5668Z" fill="white"/>
</svg>
