<svg width="76" height="15" viewBox="0 0 76 15" fill="none" xmlns="http://www.w3.org/2000/svg">
<path opacity="0.5" d="M2.255 3.706L3.685 9.063L5.445 3.706H7.161L8.921 9.063L10.351 3.706H12.606L10.131 12H7.931L6.303 7.193L4.675 12H2.475L0 3.706H2.255ZM15.6363 3.706V12H13.4803V3.706H15.6363ZM16.995 12L18.403 3.706H20.537L22.198 8.128L23.848 3.706H25.982L27.39 12H25.245L24.53 7.226L22.572 12H21.714L19.855 7.226L19.14 12H16.995ZM30.6367 7.853C30.6367 8.183 30.6991 8.48733 30.8237 8.766C30.9484 9.04467 31.1171 9.28667 31.3297 9.492C31.5424 9.69733 31.7881 9.85867 32.0667 9.976C32.3527 10.086 32.6534 10.141 32.9687 10.141C33.2841 10.141 33.5811 10.086 33.8597 9.976C34.1457 9.85867 34.3951 9.69733 34.6077 9.492C34.8277 9.28667 35.0001 9.04467 35.1247 8.766C35.2494 8.48733 35.3117 8.183 35.3117 7.853C35.3117 7.523 35.2494 7.21867 35.1247 6.94C35.0001 6.66133 34.8277 6.41933 34.6077 6.214C34.3951 6.00867 34.1457 5.851 33.8597 5.741C33.5811 5.62367 33.2841 5.565 32.9687 5.565C32.6534 5.565 32.3527 5.62367 32.0667 5.741C31.7881 5.851 31.5424 6.00867 31.3297 6.214C31.1171 6.41933 30.9484 6.66133 30.8237 6.94C30.6991 7.21867 30.6367 7.523 30.6367 7.853ZM28.3817 7.853C28.3817 7.237 28.4954 6.665 28.7227 6.137C28.9501 5.60167 29.2654 5.136 29.6687 4.74C30.0721 4.344 30.5524 4.036 31.1097 3.816C31.6744 3.58867 32.2941 3.475 32.9687 3.475C33.6361 3.475 34.2521 3.58867 34.8167 3.816C35.3814 4.036 35.8654 4.344 36.2687 4.74C36.6794 5.136 36.9984 5.60167 37.2257 6.137C37.4531 6.665 37.5667 7.237 37.5667 7.853C37.5667 8.469 37.4531 9.04467 37.2257 9.58C36.9984 10.108 36.6794 10.57 36.2687 10.966C35.8654 11.362 35.3814 11.6737 34.8167 11.901C34.2521 12.121 33.6361 12.231 32.9687 12.231C32.2941 12.231 31.6744 12.121 31.1097 11.901C30.5524 11.6737 30.0721 11.362 29.6687 10.966C29.2654 10.57 28.9501 10.108 28.7227 9.58C28.4954 9.04467 28.3817 8.469 28.3817 7.853ZM47.2209 5.829C46.9862 5.63833 46.7515 5.499 46.5169 5.411C46.2822 5.31567 46.0549 5.268 45.8349 5.268C45.5562 5.268 45.3289 5.334 45.1529 5.466C44.9769 5.598 44.8889 5.77033 44.8889 5.983C44.8889 6.12967 44.9329 6.25067 45.0209 6.346C45.1089 6.44133 45.2225 6.52567 45.3619 6.599C45.5085 6.665 45.6699 6.72367 45.8459 6.775C46.0292 6.82633 46.2089 6.88133 46.3849 6.94C47.0889 7.17467 47.6022 7.49 47.9249 7.886C48.2549 8.27467 48.4199 8.78433 48.4199 9.415C48.4199 9.84033 48.3465 10.2253 48.1999 10.57C48.0605 10.9147 47.8515 11.2117 47.5729 11.461C47.3015 11.703 46.9642 11.89 46.5609 12.022C46.1649 12.1613 45.7139 12.231 45.2079 12.231C44.1592 12.231 43.1875 11.9193 42.2929 11.296L43.2169 9.558C43.5395 9.844 43.8585 10.0567 44.1739 10.196C44.4892 10.3353 44.8009 10.405 45.1089 10.405C45.4609 10.405 45.7212 10.3243 45.8899 10.163C46.0659 10.0017 46.1539 9.81833 46.1539 9.613C46.1539 9.48833 46.1319 9.382 46.0879 9.294C46.0439 9.19867 45.9705 9.11433 45.8679 9.041C45.7652 8.96033 45.6295 8.887 45.4609 8.821C45.2995 8.755 45.1015 8.68167 44.8669 8.601C44.5882 8.513 44.3132 8.41767 44.0419 8.315C43.7779 8.205 43.5395 8.062 43.3269 7.886C43.1215 7.71 42.9529 7.49 42.8209 7.226C42.6962 6.95467 42.6339 6.61367 42.6339 6.203C42.6339 5.79233 42.6999 5.422 42.8319 5.092C42.9712 4.75467 43.1619 4.46867 43.4039 4.234C43.6532 3.992 43.9539 3.805 44.3059 3.673C44.6652 3.541 45.0649 3.475 45.5049 3.475C45.9155 3.475 46.3445 3.53367 46.7919 3.651C47.2392 3.761 47.6682 3.926 48.0789 4.146L47.2209 5.829ZM49.5912 2.87H51.5822V7.072C51.8535 6.742 52.1285 6.522 52.4072 6.412C52.6858 6.29467 53.0122 6.236 53.3862 6.236C54.0975 6.236 54.6328 6.434 54.9922 6.83C55.3588 7.21867 55.5422 7.74667 55.5422 8.414V12H53.5512V9.151C53.5512 8.865 53.5292 8.634 53.4852 8.458C53.4412 8.282 53.3678 8.14633 53.2652 8.051C53.0892 7.897 52.8765 7.82 52.6272 7.82C52.2898 7.82 52.0295 7.92267 51.8462 8.128C51.6702 8.326 51.5822 8.612 51.5822 8.986V12H49.5912V2.87ZM58.7439 9.162C58.7439 9.34533 58.7769 9.51767 58.8429 9.679C58.9089 9.833 58.9969 9.96867 59.1069 10.086C59.2242 10.2033 59.3599 10.295 59.5139 10.361C59.6752 10.427 59.8475 10.46 60.0309 10.46C60.2069 10.46 60.3719 10.427 60.5259 10.361C60.6872 10.295 60.8229 10.2033 60.9329 10.086C61.0502 9.96867 61.1419 9.833 61.2079 9.679C61.2812 9.525 61.3179 9.36 61.3179 9.184C61.3179 9.008 61.2812 8.843 61.2079 8.689C61.1419 8.52767 61.0502 8.38833 60.9329 8.271C60.8229 8.15367 60.6872 8.062 60.5259 7.996C60.3719 7.93 60.2069 7.897 60.0309 7.897C59.8475 7.897 59.6752 7.93 59.5139 7.996C59.3599 8.062 59.2242 8.15367 59.1069 8.271C58.9969 8.38833 58.9089 8.524 58.8429 8.678C58.7769 8.82467 58.7439 8.986 58.7439 9.162ZM61.2519 6.357H63.2539V12H61.2519V11.373C60.8265 11.9083 60.2509 12.176 59.5249 12.176C59.1142 12.176 58.7365 12.1027 58.3919 11.956C58.0472 11.802 57.7465 11.5893 57.4899 11.318C57.2332 11.0467 57.0315 10.7277 56.8849 10.361C56.7455 9.99433 56.6759 9.59467 56.6759 9.162C56.6759 8.75867 56.7455 8.37733 56.8849 8.018C57.0242 7.65133 57.2185 7.33233 57.4679 7.061C57.7172 6.78967 58.0142 6.577 58.3589 6.423C58.7035 6.26167 59.0849 6.181 59.5029 6.181C60.2069 6.181 60.7899 6.42667 61.2519 6.918V6.357ZM64.6088 6.357H66.5998V7.281C66.8124 6.94367 67.0728 6.687 67.3808 6.511C67.6888 6.32767 68.0481 6.236 68.4588 6.236C68.5101 6.236 68.5651 6.236 68.6238 6.236C68.6898 6.236 68.7631 6.24333 68.8438 6.258V8.161C68.5798 8.029 68.2938 7.963 67.9858 7.963C67.5238 7.963 67.1754 8.10233 66.9408 8.381C66.7134 8.65233 66.5998 9.052 66.5998 9.58V12H64.6088V6.357ZM73.9222 8.359C73.8562 8.08033 73.7206 7.85667 73.5152 7.688C73.3099 7.51933 73.0606 7.435 72.7672 7.435C72.4592 7.435 72.2062 7.51567 72.0082 7.677C71.8176 7.83833 71.6966 8.06567 71.6452 8.359H73.9222ZM71.5902 9.514C71.5902 10.372 71.9936 10.801 72.8002 10.801C73.2329 10.801 73.5592 10.625 73.7792 10.273H75.7042C75.3156 11.5637 74.3439 12.209 72.7892 12.209C72.3126 12.209 71.8762 12.1393 71.4802 12C71.0842 11.8533 70.7432 11.648 70.4572 11.384C70.1786 11.12 69.9622 10.8047 69.8082 10.438C69.6542 10.0713 69.5772 9.66067 69.5772 9.206C69.5772 8.73667 69.6506 8.315 69.7972 7.941C69.9439 7.55967 70.1529 7.237 70.4242 6.973C70.6956 6.709 71.0219 6.50733 71.4032 6.368C71.7919 6.22133 72.2282 6.148 72.7122 6.148C73.1889 6.148 73.6179 6.22133 73.9992 6.368C74.3806 6.50733 74.7032 6.71267 74.9672 6.984C75.2312 7.25533 75.4329 7.589 75.5722 7.985C75.7116 8.37367 75.7812 8.81367 75.7812 9.305V9.514H71.5902Z" fill="white"/>
</svg>
