<svg width="97" height="31" viewBox="0 0 97 31" fill="none" xmlns="http://www.w3.org/2000/svg">
<rect width="97" height="31" rx="15.5" fill="#48484A"/>
<path d="M12.255 11.706L13.685 17.063L15.445 11.706H17.161L18.921 17.063L20.351 11.706H22.606L20.131 20H17.931L16.303 15.193L14.675 20H12.475L10 11.706H12.255ZM25.6363 11.706V20H23.4803V11.706H25.6363ZM26.995 20L28.403 11.706H30.537L32.198 16.128L33.848 11.706H35.982L37.39 20H35.245L34.53 15.226L32.572 20H31.714L29.855 15.226L29.14 20H26.995ZM40.6367 15.853C40.6367 16.183 40.6991 16.4873 40.8237 16.766C40.9484 17.0447 41.1171 17.2867 41.3297 17.492C41.5424 17.6973 41.7881 17.8587 42.0667 17.976C42.3527 18.086 42.6534 18.141 42.9687 18.141C43.2841 18.141 43.5811 18.086 43.8597 17.976C44.1457 17.8587 44.3951 17.6973 44.6077 17.492C44.8277 17.2867 45.0001 17.0447 45.1247 16.766C45.2494 16.4873 45.3117 16.183 45.3117 15.853C45.3117 15.523 45.2494 15.2187 45.1247 14.94C45.0001 14.6613 44.8277 14.4193 44.6077 14.214C44.3951 14.0087 44.1457 13.851 43.8597 13.741C43.5811 13.6237 43.2841 13.565 42.9687 13.565C42.6534 13.565 42.3527 13.6237 42.0667 13.741C41.7881 13.851 41.5424 14.0087 41.3297 14.214C41.1171 14.4193 40.9484 14.6613 40.8237 14.94C40.6991 15.2187 40.6367 15.523 40.6367 15.853ZM38.3817 15.853C38.3817 15.237 38.4954 14.665 38.7227 14.137C38.9501 13.6017 39.2654 13.136 39.6687 12.74C40.0721 12.344 40.5524 12.036 41.1097 11.816C41.6744 11.5887 42.2941 11.475 42.9687 11.475C43.6361 11.475 44.2521 11.5887 44.8167 11.816C45.3814 12.036 45.8654 12.344 46.2687 12.74C46.6794 13.136 46.9984 13.6017 47.2257 14.137C47.4531 14.665 47.5667 15.237 47.5667 15.853C47.5667 16.469 47.4531 17.0447 47.2257 17.58C46.9984 18.108 46.6794 18.57 46.2687 18.966C45.8654 19.362 45.3814 19.6737 44.8167 19.901C44.2521 20.121 43.6361 20.231 42.9687 20.231C42.2941 20.231 41.6744 20.121 41.1097 19.901C40.5524 19.6737 40.0721 19.362 39.6687 18.966C39.2654 18.57 38.9501 18.108 38.7227 17.58C38.4954 17.0447 38.3817 16.469 38.3817 15.853ZM57.2209 13.829C56.9862 13.6383 56.7515 13.499 56.5169 13.411C56.2822 13.3157 56.0549 13.268 55.8349 13.268C55.5562 13.268 55.3289 13.334 55.1529 13.466C54.9769 13.598 54.8889 13.7703 54.8889 13.983C54.8889 14.1297 54.9329 14.2507 55.0209 14.346C55.1089 14.4413 55.2225 14.5257 55.3619 14.599C55.5085 14.665 55.6699 14.7237 55.8459 14.775C56.0292 14.8263 56.2089 14.8813 56.3849 14.94C57.0889 15.1747 57.6022 15.49 57.9249 15.886C58.2549 16.2747 58.4199 16.7843 58.4199 17.415C58.4199 17.8403 58.3465 18.2253 58.1999 18.57C58.0605 18.9147 57.8515 19.2117 57.5729 19.461C57.3015 19.703 56.9642 19.89 56.5609 20.022C56.1649 20.1613 55.7139 20.231 55.2079 20.231C54.1592 20.231 53.1875 19.9193 52.2929 19.296L53.2169 17.558C53.5395 17.844 53.8585 18.0567 54.1739 18.196C54.4892 18.3353 54.8009 18.405 55.1089 18.405C55.4609 18.405 55.7212 18.3243 55.8899 18.163C56.0659 18.0017 56.1539 17.8183 56.1539 17.613C56.1539 17.4883 56.1319 17.382 56.0879 17.294C56.0439 17.1987 55.9705 17.1143 55.8679 17.041C55.7652 16.9603 55.6295 16.887 55.4609 16.821C55.2995 16.755 55.1015 16.6817 54.8669 16.601C54.5882 16.513 54.3132 16.4177 54.0419 16.315C53.7779 16.205 53.5395 16.062 53.3269 15.886C53.1215 15.71 52.9529 15.49 52.8209 15.226C52.6962 14.9547 52.6339 14.6137 52.6339 14.203C52.6339 13.7923 52.6999 13.422 52.8319 13.092C52.9712 12.7547 53.1619 12.4687 53.4039 12.234C53.6532 11.992 53.9539 11.805 54.3059 11.673C54.6652 11.541 55.0649 11.475 55.5049 11.475C55.9155 11.475 56.3445 11.5337 56.7919 11.651C57.2392 11.761 57.6682 11.926 58.0789 12.146L57.2209 13.829ZM59.5912 10.87H61.5822V15.072C61.8535 14.742 62.1285 14.522 62.4072 14.412C62.6858 14.2947 63.0122 14.236 63.3862 14.236C64.0975 14.236 64.6328 14.434 64.9922 14.83C65.3588 15.2187 65.5422 15.7467 65.5422 16.414V20H63.5512V17.151C63.5512 16.865 63.5292 16.634 63.4852 16.458C63.4412 16.282 63.3678 16.1463 63.2652 16.051C63.0892 15.897 62.8765 15.82 62.6272 15.82C62.2898 15.82 62.0295 15.9227 61.8462 16.128C61.6702 16.326 61.5822 16.612 61.5822 16.986V20H59.5912V10.87ZM68.7439 17.162C68.7439 17.3453 68.7769 17.5177 68.8429 17.679C68.9089 17.833 68.9969 17.9687 69.1069 18.086C69.2242 18.2033 69.3599 18.295 69.5139 18.361C69.6752 18.427 69.8475 18.46 70.0309 18.46C70.2069 18.46 70.3719 18.427 70.5259 18.361C70.6872 18.295 70.8229 18.2033 70.9329 18.086C71.0502 17.9687 71.1419 17.833 71.2079 17.679C71.2812 17.525 71.3179 17.36 71.3179 17.184C71.3179 17.008 71.2812 16.843 71.2079 16.689C71.1419 16.5277 71.0502 16.3883 70.9329 16.271C70.8229 16.1537 70.6872 16.062 70.5259 15.996C70.3719 15.93 70.2069 15.897 70.0309 15.897C69.8475 15.897 69.6752 15.93 69.5139 15.996C69.3599 16.062 69.2242 16.1537 69.1069 16.271C68.9969 16.3883 68.9089 16.524 68.8429 16.678C68.7769 16.8247 68.7439 16.986 68.7439 17.162ZM71.2519 14.357H73.2539V20H71.2519V19.373C70.8265 19.9083 70.2509 20.176 69.5249 20.176C69.1142 20.176 68.7365 20.1027 68.3919 19.956C68.0472 19.802 67.7465 19.5893 67.4899 19.318C67.2332 19.0467 67.0315 18.7277 66.8849 18.361C66.7455 17.9943 66.6759 17.5947 66.6759 17.162C66.6759 16.7587 66.7455 16.3773 66.8849 16.018C67.0242 15.6513 67.2185 15.3323 67.4679 15.061C67.7172 14.7897 68.0142 14.577 68.3589 14.423C68.7035 14.2617 69.0849 14.181 69.5029 14.181C70.2069 14.181 70.7899 14.4267 71.2519 14.918V14.357ZM74.6088 14.357H76.5998V15.281C76.8124 14.9437 77.0728 14.687 77.3808 14.511C77.6888 14.3277 78.0481 14.236 78.4588 14.236C78.5101 14.236 78.5651 14.236 78.6238 14.236C78.6898 14.236 78.7631 14.2433 78.8438 14.258V16.161C78.5798 16.029 78.2938 15.963 77.9858 15.963C77.5238 15.963 77.1754 16.1023 76.9408 16.381C76.7134 16.6523 76.5998 17.052 76.5998 17.58V20H74.6088V14.357ZM83.9222 16.359C83.8562 16.0803 83.7206 15.8567 83.5152 15.688C83.3099 15.5193 83.0606 15.435 82.7672 15.435C82.4592 15.435 82.2062 15.5157 82.0082 15.677C81.8176 15.8383 81.6966 16.0657 81.6452 16.359H83.9222ZM81.5902 17.514C81.5902 18.372 81.9936 18.801 82.8002 18.801C83.2329 18.801 83.5592 18.625 83.7792 18.273H85.7042C85.3156 19.5637 84.3439 20.209 82.7892 20.209C82.3126 20.209 81.8762 20.1393 81.4802 20C81.0842 19.8533 80.7432 19.648 80.4572 19.384C80.1786 19.12 79.9622 18.8047 79.8082 18.438C79.6542 18.0713 79.5772 17.6607 79.5772 17.206C79.5772 16.7367 79.6506 16.315 79.7972 15.941C79.9439 15.5597 80.1529 15.237 80.4242 14.973C80.6956 14.709 81.0219 14.5073 81.4032 14.368C81.7919 14.2213 82.2282 14.148 82.7122 14.148C83.1889 14.148 83.6179 14.2213 83.9992 14.368C84.3806 14.5073 84.7032 14.7127 84.9672 14.984C85.2312 15.2553 85.4329 15.589 85.5722 15.985C85.7116 16.3737 85.7812 16.8137 85.7812 17.305V17.514H81.5902Z" fill="white"/>
</svg>
